<svg id="Capa_1" enable-background="new 0 0 512 512" height="512" viewBox="0 0 512 512" width="512" xmlns="http://www.w3.org/2000/svg"><path d="m145 307.001h30v89.999h-30z" transform="matrix(.707 -.707 .707 .707 -202.039 216.236)"/><path d="m405.935 0-66.144 66.144-21.213 63.64-49.037 49.037c-8.499 8.499-19.798 13.18-31.813 13.18h-77.728c-88.224-.001-159.999 71.773-160 159.997 0 42.703 16.653 82.873 46.892 113.11 30.237 30.239 70.407 46.892 113.11 46.892 88.224-.001 159.998-71.776 159.998-160v-77.726c0-12.014 4.679-23.311 13.175-31.81l49.042-49.042 63.639-21.214 66.144-66.143zm63.639 106.065-31.82 31.82-63.64-63.64 31.82-31.82zm-120.724 27.769 10.606-31.82 50.53 50.53-31.82 10.607zm-17.162 25.265 21.214 21.214-40.936 40.935c-.003.004-47.725 47.725-47.725 47.725-2.142-4.497-5.064-8.713-8.782-12.431s-7.934-6.64-12.431-8.782zm-118.655 118.655c2.833-2.833 6.6-4.394 10.606-4.394s7.773 1.561 10.606 4.394 4.394 6.6 4.394 10.606-1.561 7.773-4.394 10.606-6.6 4.394-10.606 4.394-7.773-1.561-10.606-4.394-4.394-6.6-4.394-10.606 1.561-7.773 4.394-10.606zm76.967 74.246c0 71.682-58.317 129.999-129.998 130-34.689 0-67.326-13.532-91.897-38.104-24.573-24.572-38.105-57.208-38.105-91.898.001-71.681 58.318-129.998 130-129.998h66.361l-34.541 34.541c-17.546 17.545-17.546 46.094 0 63.639 8.772 8.772 20.296 13.159 31.819 13.159s23.047-4.387 31.819-13.159l34.542-34.541z"/></svg>