<svg id="Layer_1_1_" enable-background="new 0 0 64 64" height="512" viewBox="0 0 64 64" width="512" xmlns="http://www.w3.org/2000/svg"><path d="m19.177 56.224-9.438.555c-2.692.158-5.227 1.296-7.135 3.204l-.311.311 1.414 1.414.311-.311c1.562-1.562 3.635-2.492 5.838-2.622l9.438-.555c2.639-.157 4.706-2.349 4.706-4.991v-2.884c0-3.085-1.577-5.925-4.218-7.596-7.711-4.882-11.31-13.869-9.172-22.896 2.035-8.593 9.125-14.766 18.062-15.728 10.224-1.092 18.381 5.304 20.823 16.305.023.104.063.205.118.297l6.723 11.229c.021.033.043.066.066.097-.612.244-1.251.4-1.928.565-.508.124-1.01.248-1.495.405-1.991.645-3.418 2.431-3.635 4.552l-.047.463c-.346 3.399-1.756 6.541-3.972 8.849-.659.687-1.276 1.165-1.783 1.383-2.564 1.101-9.302-3.604-12.942-6.829l-1.326 1.496c.784.695 6.141 5.346 10.726 6.937v3.356c0 2.643 2.067 4.835 4.706 4.991l9.438.555c2.203.13 4.276 1.061 5.838 2.622l.311.311 1.414-1.414-.311-.311c-1.908-1.908-4.442-3.046-7.135-3.204l-9.438-.555c-1.583-.095-2.823-1.411-2.823-2.996v-2.869c.857.103 1.65.041 2.333-.253.772-.333 1.569-.933 2.437-1.836 2.522-2.627 4.128-6.189 4.519-10.031l.047-.463c.136-1.332 1.022-2.451 2.26-2.852.44-.142.895-.252 1.354-.364.714-.175 1.452-.354 2.197-.652.586-.235 1.018-.72 1.185-1.329.16-.587.05-1.2-.304-1.692l-6.615-11.05c-2.724-11.967-11.717-18.909-22.955-17.701-9.64 1.037-17.595 7.971-19.793 17.255-2.339 9.87 1.604 19.702 10.047 25.047 2.059 1.302 3.288 3.51 3.288 5.906v2.884c0 1.585-1.24 2.901-2.823 2.995z"/><path d="m42.447 27.895 6-3-.895-1.789-5.552 2.776-3.553-1.776-.895 1.789 4 2c.141.07.295.105.448.105s.307-.035.447-.105z"/><path d="m31.315 16.493-5.591-9.507c-.363-.617-1.007-.986-1.724-.986s-1.361.369-1.725.986l-9.997 16.999c-.369.626-.374 1.376-.014 2.007.362.631 1.011 1.008 1.738 1.008h19.996c.727 0 1.376-.377 1.737-1.008.36-.631.355-1.381-.013-2.006l-2.86-4.863-1.725 1.014 2.861 4.863h-19.996l9.998-17 5.591 9.507z"/><path d="m23 13h2v6h-2z"/><path d="m23 21h2v2h-2z"/><path d="m15 29h18v2h-18z"/><path d="m18 33h12v2h-12z"/><path d="m21 37h6v2h-6z"/></svg>