<svg id="Capa_1" enable-background="new 0 0 511.997 511.997" height="512" viewBox="0 0 511.997 511.997" width="512" xmlns="http://www.w3.org/2000/svg"><path d="m465.999 481.997h-15c0-14.64 0-146.265 0-166 0-8.284-6.716-15-15-15h-45c0-15.06 0-91.058 0-106 0-8.284-6.716-15-15-15h-16.076c-6.597-45.916-43.008-82.327-88.924-88.924v-5.265l79.743-26.581c6.125-2.042 10.257-7.774 10.257-14.23s-4.132-12.188-10.257-14.23l-90-30c-9.813-3.22-19.743 4.117-19.743 14.23v76.076c-45.916 6.597-82.327 43.008-88.924 88.924h-16.076c-8.284 0-15 6.716-15 15v106h-45c-8.284 0-15 6.716-15 15v166h-15c-8.284 0-15 6.716-15 15s6.716 15 15 15h420c8.284 0 15-6.716 15-15s-6.716-15-15-15zm-285-91v91h-30v-91zm30 0h30v91h-30zm60 0h30v91h-30zm60 0h30v91h-30zm60 0h30v91h-30zm-60-90v-31h30v31zm-60 0v-31h30v31zm-60 0v-31h30v31zm60-246.811v-18.377l27.565 9.188zm-15 65.811c36.219 0 66.523 25.809 73.493 60h-146.987c6.97-34.191 37.275-60 73.494-60zm-105 90h210v30h-210zm0 60h30v31h-30zm-60 61h330v30h-330zm0 60h30v91h-30z"/></svg>