<svg height="512" width="512" xmlns="http://www.w3.org/2000/svg"><path d="M117.526 330.77l21.21-21.21 63.629 63.63-21.21 21.21z"/><path d="M405.935 0l-66.144 66.144-21.213 63.64-49.037 49.037c-8.499 8.499-19.798 13.18-31.813 13.18H160C71.776 192 .001 263.774 0 351.998c0 42.703 16.653 82.873 46.892 113.11C77.129 495.347 117.299 512 160.002 512 248.226 511.999 320 440.224 320 352v-77.726c0-12.014 4.679-23.311 13.175-31.81l49.042-49.042 63.639-21.214L512 106.065zm63.639 106.065l-31.82 31.82-63.64-63.64 31.82-31.82zM348.85 133.834l10.606-31.82 50.53 50.53-31.82 10.607zm-17.162 25.265l21.214 21.214-40.936 40.935-47.725 47.725c-2.142-4.497-5.064-8.713-8.782-12.431s-7.934-6.64-12.431-8.782zM213.033 277.754c2.833-2.833 6.6-4.394 10.606-4.394s7.773 1.561 10.606 4.394 4.394 6.6 4.394 10.606-1.561 7.773-4.394 10.606-6.6 4.394-10.606 4.394-7.773-1.561-10.606-4.394-4.394-6.6-4.394-10.606 1.561-7.773 4.394-10.606zM290 352c0 71.682-58.317 129.999-129.998 130-34.689 0-67.326-13.532-91.897-38.104C43.532 419.324 30 386.688 30 351.998 30.001 280.317 88.318 222 160 222h66.361l-34.541 34.541c-17.546 17.545-17.546 46.094 0 63.639 8.772 8.772 20.296 13.159 31.819 13.159s23.047-4.387 31.819-13.159L290 285.639z"/></svg>