<svg height="512" viewBox="0 0 64 64" width="512" xmlns="http://www.w3.org/2000/svg"><path d="M19.177 56.224l-9.438.555a10.993 10.993 0 00-7.135 3.204l-.311.311 1.414 1.414.311-.311a8.996 8.996 0 015.838-2.622l9.438-.555A5.007 5.007 0 0024 53.229v-2.884c0-3.085-1.577-5.925-4.218-7.596-7.711-4.882-11.31-13.869-9.172-22.896 2.035-8.593 9.125-14.766 18.062-15.728C38.896 3.033 47.053 9.429 49.495 20.43c.023.104.063.205.118.297l6.723 11.229c.021.033.043.066.066.097-.612.244-1.251.4-1.928.565-.508.124-1.01.248-1.495.405-1.991.645-3.418 2.431-3.635 4.552l-.047.463c-.346 3.399-1.756 6.541-3.972 8.849-.659.687-1.276 1.165-1.783 1.383-2.564 1.101-9.302-3.604-12.942-6.829l-1.326 1.496c.784.695 6.141 5.346 10.726 6.937v3.356a5.005 5.005 0 004.706 4.991l9.438.555a9 9 0 015.838 2.622l.311.311 1.414-1.414-.311-.311a10.991 10.991 0 00-7.135-3.204l-9.438-.555A3.006 3.006 0 0142 53.229V50.36c.857.103 1.65.041 2.333-.253.772-.333 1.569-.933 2.437-1.836 2.522-2.627 4.128-6.189 4.519-10.031l.047-.463c.136-1.332 1.022-2.451 2.26-2.852.44-.142.895-.252 1.354-.364.714-.175 1.452-.354 2.197-.652a1.987 1.987 0 001.185-1.329c.16-.587.05-1.2-.304-1.692l-6.615-11.05C48.689 7.871 39.696.929 28.458 2.137c-9.64 1.037-17.595 7.971-19.793 17.255-2.339 9.87 1.604 19.702 10.047 25.047C20.771 45.741 22 47.949 22 50.345v2.884a3.004 3.004 0 01-2.823 2.995z"/><path d="M42.447 27.895l6-3-.895-1.789L42 25.882l-3.553-1.776-.895 1.789 4 2a1.009 1.009 0 00.895 0zM31.315 16.493l-5.591-9.507C25.361 6.369 24.717 6 24 6s-1.361.369-1.725.986l-9.997 16.999a1.979 1.979 0 00-.014 2.007A1.983 1.983 0 0014.002 27h19.996a1.98 1.98 0 001.737-1.008 1.979 1.979 0 00-.013-2.006l-2.86-4.863-1.725 1.014L33.998 25H14.002L24 8l5.591 9.507z"/><path d="M23 13h2v6h-2zm0 8h2v2h-2zm-8 8h18v2H15zm3 4h12v2H18zm3 4h6v2h-6z"/></svg>