<svg xmlns="http://www.w3.org/2000/svg" viewBox="0 0 480 480"><path d="M376 4c-57.438 0-104 46.562-104 104v6.56l-31.52 86.72a8 8 0 00.96 7.28A7.998 7.998 0 00248 212h40v48a8 8 0 008 8h80v32a8 8 0 008 8h88a8 8 0 008-8V108C480 50.562 433.438 4 376 4zm88 288h-72v-32a8 8 0 00-8-8h-80v-48a8 8 0 00-8-8h-36.56l28.08-77.28A8.008 8.008 0 00288 116v-8c0-48.601 39.399-88 88-88s88 39.399 88 88v184z"/><path d="M360.4 107.12c-11.804 11.779-30.916 11.779-42.72 0l-11.36 11.36c18.081 18.045 47.359 18.045 65.44 0l-11.36-11.36zM239.52 369.28L208 282.56V276c0-57.438-46.562-104-104-104S0 218.562 0 276v192a8 8 0 008 8h88a8 8 0 008-8v-32h80a8 8 0 008-8v-48h40a7.998 7.998 0 006.56-3.44 8 8 0 00.96-7.28zM184 364a8 8 0 00-8 8v48H96a8 8 0 00-8 8v32H16V276c0-48.601 39.399-88 88-88s88 39.399 88 88v8c.001.928.164 1.848.48 2.72L220.56 364H184z"/><path d="M162.32 275.12c-11.804 11.779-30.916 11.779-42.72 0l-11.36 11.36c18.081 18.045 47.359 18.045 65.44 0l-11.36-11.36zM128 68c-22.091 0-40 17.909-40 40v20.72l-10.32-10.4-11.36 11.36 24 24a8 8 0 0011.314.046l.046-.046 24-24-11.36-11.36-10.32 10.4V108c0-13.255 10.745-24 24-24h96V68h-96zm112 0h16v16h-16zm197.68 258.32a8 8 0 00-11.314-.046l-.046.046-24 24 11.36 11.36 10.32-10.4V388c0 13.255-10.745 24-24 24H240v16h160c22.091 0 40-17.909 40-40v-36.72l10.32 10.4 11.36-11.36-24-24zM208 412h16v16h-16z"/></svg>