<svg xmlns="http://www.w3.org/2000/svg" viewBox="0 0 480 480"><path d="M454.672 194.872C470.024 183.176 480 164.752 480 144c0-35.288-28.712-64-64-64s-64 28.712-64 64c0 19.12 8.472 36.264 21.808 48h-42.496l-53.656-53.656a7.991 7.991 0 00-11.312 0l-32 32a7.991 7.991 0 000 11.312l72 72A7.965 7.965 0 00312 256h64v56H238.944l39.712-59.56-13.312-8.872L219.72 312H200v-40c0-4.424-3.576-8-8-8h-64v-32c0-16.864-10.528-31.256-25.328-37.128C118.024 183.176 128 164.752 128 144c0-35.288-28.712-64-64-64S0 108.712 0 144c0 20.752 9.976 39.176 25.328 50.872C10.528 200.744 0 215.136 0 232v112c0 22.056 17.944 40 40 40v96h16v-96h56v88c0 4.424 3.576 8 8 8h56c4.424 0 8-3.576 8-8V352c0-9-2.984-17.312-8.016-24H232v136h-32v16h80v-16h-32V328h56.208c-5.08 6.704-8.208 14.96-8.208 24v120c0 4.424 3.576 8 8 8h56c4.424 0 8-3.576 8-8v-88h56v96h16v-96c22.056 0 40-17.944 40-40V232c0-16.864-10.528-31.256-25.328-37.128zM16 144c0-26.472 21.528-48 48-48s48 21.528 48 48-21.528 48-48 48-48-21.528-48-48zm168 168H80v-64H64v72c0 4.424 3.576 8 8 8h72c13.232 0 24 10.768 24 24v112h-40v-88c0-4.424-3.576-8-8-8H40c-13.232 0-24-10.768-24-24V232c0-13.232 10.768-24 24-24h48c13.232 0 24 10.768 24 24v40c0 4.424 3.576 8 8 8h64v32zm184-168c0-26.472 21.528-48 48-48s48 21.528 48 48-21.528 48-48 48-48-21.528-48-48zm96 200c0 13.232-10.768 24-24 24h-80c-4.424 0-8 3.576-8 8v88h-40V352c0-13.232 10.768-24 24-24h48c4.424 0 8-3.576 8-8v-72c0-4.424-3.576-8-8-8h-68.688l-64-64L272 155.312l50.344 50.344A7.965 7.965 0 00328 208h112c13.232 0 24 10.768 24 24v112z"/><path d="M320 0H160c-13.232 0-24 10.768-24 24v64c0 13.232 10.768 24 24 24h8v48a7.992 7.992 0 008 8c2.08 0 4.128-.816 5.656-2.344L235.312 112H320c13.232 0 24-10.768 24-24V24c0-13.232-10.768-24-24-24zm8 88c0 4.416-3.584 8-8 8h-88c-2.128 0-4.16.84-5.656 2.344L184 140.688V104c0-4.424-3.576-8-8-8h-16c-4.416 0-8-3.584-8-8V24c0-4.416 3.584-8 8-8h160c4.416 0 8 3.584 8 8v64z"/><path d="M168 32h48v16h-48zm0 32h144v16H168zm64-32h80v16h-80z"/></svg>