<svg xmlns="http://www.w3.org/2000/svg" width="512" height="512"><path d="M189.952 493.53a8.003 8.003 0 005.781 2.47H232a8 8 0 007.155-4.422L256 457.888l16.845 33.69A8 8 0 00280 496h36.267a8 8 0 007.992-8.355l-4.224-95.029L326.56 360H328a8 8 0 007.155-4.422l16-32a8 8 0 00.537-5.776l-16-56a8.002 8.002 0 00-4.54-5.156l-45.91-19.675A31.793 31.793 0 00288 224v-40a8 8 0 00-3.563-6.656l-19.358-12.906A26.422 26.422 0 00224 186.422V224a31.801 31.801 0 002.758 12.971l-45.91 19.675a7.998 7.998 0 00-4.609 5.414l-16 64a8 8 0 001.105 6.378l16 24A8 8 0 00184 360h1.441l6.524 32.616-4.224 95.029a8.004 8.004 0 002.211 5.885zM284.944 480l-21.789-43.578a8 8 0 00-14.31 0L227.055 480h-22.958l3.555-80h96.696l3.555 80zM240 224v-16h32v16a16 16 0 01-32 0zm10.422-48a10.384 10.384 0 015.781 1.75L272 188.281V192h-32v-5.578A10.433 10.433 0 01250.422 176zm-73.803 150.507l14.18-56.717 46.43-19.898a31.9 31.9 0 0037.543 0l46.58 19.962 14.101 49.352L323.056 344h-33.167l-17.981-8.99 30.607-20.405 14.955 4.985 5.06-15.18L312 300.9V280a8 8 0 00-8-8h-16a7.997 7.997 0 00-2.97.572l-26.372 10.548-32.128-10.71A8.015 8.015 0 00224 272h-16a8 8 0 00-8 8v32a7.999 7.999 0 0010.97 7.428l49.833-19.933 8.884 17.766L229.578 344h-41.297zM296 299.719l-12.897 8.598-7.393-14.785L289.541 288H296zm-60.34-7.4L216 300.184V288h6.702zM232 360a8.002 8.002 0 004.438-1.344l20.137-13.425 27.847 13.924A8 8 0 00288 360h22.241l-4.8 24H206.56l-4.8-24zm0-208v-48a8 8 0 00-8-8h-22.037L256 35.959 310.037 96H288a8 8 0 00-8 8v48h16v-40h32a8 8 0 005.946-13.352l-72-80a8 8 0 00-11.892 0l-72 80A8 8 0 00184 112h32v40z"/><path d="M98.648 269.946A8 8 0 00112 264v-32h24a8.01 8.01 0 018 8v24h16v-24a24.027 24.027 0 00-24-24h-32a8 8 0 00-8 8v22.037L35.959 192 96 137.963V160a8 8 0 008 8h40a48.054 48.054 0 0148 48v16h16v-16a64.072 64.072 0 00-64-64h-32v-32a8 8 0 00-13.352-5.946l-80 72a8 8 0 000 11.892zm394.704-83.889l-80-72A8 8 0 00400 120.003v32h-32a64.072 64.072 0 00-64 64v16h16v-16a48.054 48.054 0 0148-48h40a8 8 0 008-8v-22.037l60.041 54.037L416 246.04v-22.037a8 8 0 00-8-8h-32a24.027 24.027 0 00-24 24v24h16v-24a8.01 8.01 0 018-8h24v32a8 8 0 0013.352 5.946l80-72a8 8 0 000-11.892z"/></svg>