<svg height="512" viewBox="0 0 511.997 511.997" width="512" xmlns="http://www.w3.org/2000/svg"><path d="M465.999 481.997h-15v-166c0-8.284-6.716-15-15-15h-45v-106c0-8.284-6.716-15-15-15h-16.076c-6.597-45.916-43.008-82.327-88.924-88.924v-5.265l79.743-26.581a15 15 0 000-28.46l-90-30c-9.813-3.22-19.743 4.117-19.743 14.23v76.076c-45.916 6.597-82.327 43.008-88.924 88.924h-16.076c-8.284 0-15 6.716-15 15v106h-45c-8.284 0-15 6.716-15 15v166h-15c-8.284 0-15 6.716-15 15s6.716 15 15 15h420c8.284 0 15-6.716 15-15s-6.716-15-15-15zm-285-91v91h-30v-91zm30 0h30v91h-30zm60 0h30v91h-30zm60 0h30v91h-30zm60 0h30v91h-30zm-60-90v-31h30v31zm-60 0v-31h30v31zm-60 0v-31h30v31zm60-246.811V35.809l27.565 9.188zm-15 65.811c36.219 0 66.523 25.809 73.493 60H182.505c6.97-34.191 37.275-60 73.494-60zm-105 90h210v30h-210zm0 60h30v31h-30zm-60 61h330v30h-330zm0 60h30v91h-30z"/></svg>