<svg xmlns="http://www.w3.org/2000/svg" viewBox="0 0 512 512"><path d="M512 512H0V0h512v512z" fill="#fec478"/><path d="M512 512H256V0h256v512z" fill="#fea832"/><path d="M482 482H30V30h452v452z" fill="#994c0f"/><path d="M482 482H256V30h226v452z" fill="#713708"/><path d="M207.502 181.6h29.28l64.8 170.4h-34.08l-15.84-42.48h-59.52l-15.6 42.48h-34.08l65.04-170.4zm38.16 104.64l-23.52-66.96-24.48 66.96h48z" fill="#fec478"/><path d="M317.182 208.72V176.8h32.159v31.92h-32.159zm0 143.28V226.24h32.159V352h-32.159zM256 232.137v89.018L267.502 352h34.08z" fill="#fea832"/></svg>